# xmcd
# 
# Track frame offsets:
#     150
#     15597
#     25130
#     37302
#     52825
#     61732
#     77162
#     90792
#     105577
#     115045
#     130840
#     144112
#     163405
# 
# Disc length: 2395
# 
# Revision: 3
# Processed by: cddbd v1.5.2PL0 Copyright (c) Steve Scherf et al.
# Submitted via: fre:ac v1.0.31
# 
DISCID=9809590d
DTITLE=The Lounge Lizards - The Lounge Lizards
DYEAR=1981
DGENRE=
TTITLE0=Incident On South Street
TTITLE1=Harlem Nocturne
TTITLE2=Do The Wrong Thing
TTITLE3=Au Contraire Arto
TTITLE4=Well You Needn't
TTITLE5=Ballad
TTITLE6=Wangling
TTITLE7=Conquest Of Rar
TTITLE8=Demented
TTITLE9=I Remember Coney Island
TTITLE10=Fatty Walks
TTITLE11=Epistrophy
TTITLE12=You Haunt Me
EXTD=The Lounge Lizards are:\nJohn Lurie:  Saxophone\nEvan Lurie:  Keyboards\nSteve Piccolo:  Bass\nArto Lindsay:  Guitar\nAnotn Fier:  Drums
EXTT0=J. Lurie
EXTT1=Earle Hagen
EXTT2=J. Lurie - S.Piccolo
EXTT3=J. Lurie
EXTT4=Thelonious Monk
EXTT5=J. Lurie
EXTT6=J. Lurie
EXTT7=J. Lurie - E. Lurie - A. Fier
EXTT8=J. Lurie
EXTT9=J. Lurie
EXTT10=J. Lurie
EXTT11=Thelonious Monk - Kenneth Clarke
EXTT12=J. Lurie
PLAYORDER=
